<?xml version="1.0" encoding="UTF-8" standalone="no"?>
<!DOCTYPE svg PUBLIC "-//W3C//DTD SVG 1.1//EN" "http://www.w3.org/Graphics/SVG/1.1/DTD/svg11.dtd">
<svg width="100%" height="100%" viewBox="0 0 1000 1000" version="1.1" xmlns="http://www.w3.org/2000/svg" xmlns:xlink="http://www.w3.org/1999/xlink" xml:space="preserve" xmlns:serif="http://www.serif.com/" style="fill-rule:evenodd;clip-rule:evenodd;stroke-linejoin:round;stroke-miterlimit:2;">
    <g transform="matrix(1.08968,0,0,1.08834,-51.597,-52.7607)">
        <path d="M965.051,186.302C965.051,110.235 903.37,48.478 827.396,48.478L185.006,48.478C109.032,48.478 47.351,110.235 47.351,186.302L47.351,829.481C47.351,905.549 109.032,967.306 185.006,967.306L827.396,967.306C903.37,967.306 965.051,905.549 965.051,829.481L965.051,186.302Z"/>
    </g>
    <g transform="matrix(7.93095,0,0,7.93095,75.4038,112.986)">
        <g transform="matrix(1,0,0,1,56.6517,97.4607)">
            <path d="M0,-97.452C-14.359,-97.177 -27.397,-91.957 -39.214,-81.491C-46.521,-75.255 -51.643,-68.036 -54.585,-59.808C-57.137,-47.864 -57.316,-36.17 -55.175,-25.026C-53.898,-17.967 -51.195,-9.631 -47.04,0.135L-18.26,0.135C-20.262,-5.745 -22.203,-10.317 -24.039,-13.665C-31.906,-28.179 -33.664,-42.36 -29.228,-55.994C-27.613,-60.212 -25.417,-64.294 -22.692,-68.139C-21.719,-69.513 -20.45,-70.945 -19.046,-72.15C-17.214,-74.153 -13.052,-76.706 -6.451,-80.005C-3.86,-81.331 -1.129,-82.267 1.908,-82.866C2.285,-83.011 4.719,-83.348 9.061,-83.848C11.902,-84.171 15.764,-83.777 20.674,-82.361C25.335,-80.982 28.805,-79.484 31.276,-77.732C34.48,-75.462 37.146,-73.026 39.439,-70.439C40.042,-69.737 40.479,-69.177 40.926,-68.448C41.738,-67.459 42.88,-65.963 44.348,-63.96C45.172,-63.376 45.728,-62.818 45.835,-62.193C46.136,-61.842 46.318,-61.702 46.62,-61.351C47.367,-60.271 48.124,-59.196 48.78,-58.181C49.317,-57.388 49.717,-56.421 50.099,-55.601C50.637,-58.107 50.542,-61.473 49.509,-65.643C48.278,-70.503 46.841,-73.86 45.189,-75.994C41.73,-80.233 39.673,-82.799 38.822,-83.539C38.612,-83.825 36.698,-85.188 33.128,-87.719C29.832,-90.054 26.366,-91.957 22.917,-93.301C16.15,-96.171 8.348,-97.587 0,-97.452" style="fill:rgb(19,193,0);fill-rule:nonzero;"/>
        </g>
        <g transform="matrix(1,0,0,1,68.0404,97.5829)">
            <path d="M0,-84.082C-0.837,-84.095 -1.617,-84.05 -2.328,-83.97C-6.67,-83.471 -9.104,-83.133 -9.48,-82.988C-12.518,-82.39 -15.249,-81.454 -17.84,-80.127C-24.44,-76.828 -28.603,-74.275 -30.435,-72.272C-31.839,-71.067 -33.108,-69.635 -34.081,-68.261C-36.806,-64.416 -39.002,-60.334 -40.617,-56.116C-45.053,-42.482 -43.294,-28.301 -35.427,-13.788C-33.591,-10.439 -31.651,-5.868 -29.649,0.013L-0.589,0.013C-1.646,-3.123 -3.219,-6.692 -5.441,-10.703C-7.123,-13.957 -9.072,-17.397 -11.276,-20.884C-11.368,-20.95 -11.304,-21.025 -11.304,-21.025C-11.659,-21.689 -11.978,-22.207 -12.37,-22.624C-12.58,-22.91 -12.721,-23.123 -12.931,-23.409L-14.165,-25.148C-14.638,-26.034 -15.122,-26.915 -15.568,-27.645C-17.246,-29.934 -18.53,-31.795 -19.579,-33.227C-20.471,-34.684 -21.359,-36.154 -22.16,-37.546C-29.779,-48.722 -29.113,-58.402 -20.196,-66.522C-17.647,-68.566 -14.672,-70.458 -11.052,-71.88C-8.877,-72.814 -6.567,-73.51 -4.403,-74.04C11.41,-76.173 25.357,-70.819 37.392,-58.304C36.735,-59.318 35.979,-60.421 35.231,-61.501C34.93,-61.853 34.747,-61.964 34.446,-62.315C34.339,-62.94 33.783,-63.498 32.959,-64.082C31.491,-66.085 30.35,-67.582 29.537,-68.57C29.091,-69.299 28.653,-69.859 28.051,-70.561C25.758,-73.148 23.092,-75.584 19.888,-77.854C17.416,-79.606 13.946,-81.104 9.285,-82.483C5.603,-83.545 2.512,-84.042 0,-84.082" style="fill:rgb(22,147,0);fill-rule:nonzero;"/>
        </g>
    </g>
</svg>
